<svg width="323" height="192" viewBox="0 0 323 192" fill="none" xmlns="http://www.w3.org/2000/svg">
<g filter="url(#filter0_d_20_2)">
<rect x="4" width="315" height="184" rx="30" fill="url(#paint0_linear_20_2)"/>
<mask id="mask0_20_2" style="mask-type:alpha" maskUnits="userSpaceOnUse" x="4" y="0" width="315" height="184">
<rect x="4" width="315" height="184" rx="30" fill="#ED713C"/>
</mask>
<g mask="url(#mask0_20_2)">
<ellipse opacity="0.1" cx="28.5" cy="213" rx="160.5" ry="113" fill="black"/>
<ellipse opacity="0.08" cx="294.5" cy="-29" rx="160.5" ry="113" fill="black"/>
</g>
<g clip-path="url(#clip0_20_2)">
<path d="M281.998 32.0189C286.235 32.0189 289.669 30 289.669 27.5095C289.669 25.019 286.235 23 281.998 23C277.762 23 274.328 25.019 274.328 27.5095C274.328 30 277.762 32.0189 281.998 32.0189Z" fill="white"/>
<path d="M281.998 65.997C286.235 65.997 289.669 63.978 289.669 61.4875C289.669 58.997 286.235 56.978 281.998 56.978C277.762 56.978 274.328 58.997 274.328 61.4875C274.328 63.978 277.762 65.997 281.998 65.997Z" fill="white"/>
<path d="M271.309 38.2611C273.427 34.5527 273.413 30.5363 271.278 29.2902C269.143 28.0441 265.695 30.0402 263.577 33.7486C261.459 37.457 261.473 41.4734 263.608 42.7195C265.743 43.9655 269.191 41.9695 271.309 38.2611Z" fill="white"/>
<path d="M300.417 55.2481C302.535 51.5397 302.522 47.524 300.389 46.2787C298.255 45.0335 294.808 47.0303 292.69 50.7386C290.572 54.447 290.584 58.4627 292.718 59.708C294.852 60.9532 298.299 58.9565 300.417 55.2481Z" fill="white"/>
<path d="M271.279 59.7069C273.414 58.4608 273.428 54.4444 271.31 50.7361C269.192 47.0277 265.744 45.0316 263.609 46.2777C261.474 47.5238 261.46 51.5402 263.578 55.2486C265.696 58.957 269.144 60.953 271.279 59.7069Z" fill="white"/>
<path d="M300.39 42.7205C302.524 41.4752 302.537 37.4595 300.419 33.7511C298.3 30.0427 294.854 28.046 292.72 29.2912C290.586 30.5365 290.574 34.5522 292.692 38.2606C294.81 41.969 298.257 43.9657 300.39 42.7205Z" fill="white"/>
</g>
</g>
<defs>
<filter id="filter0_d_20_2" x="0" y="0" width="323" height="192" filterUnits="userSpaceOnUse" color-interpolation-filters="sRGB">
<feFlood flood-opacity="0" result="BackgroundImageFix"/>
<feColorMatrix in="SourceAlpha" type="matrix" values="0 0 0 0 0 0 0 0 0 0 0 0 0 0 0 0 0 0 127 0" result="hardAlpha"/>
<feOffset dy="4"/>
<feGaussianBlur stdDeviation="2"/>
<feComposite in2="hardAlpha" operator="out"/>
<feColorMatrix type="matrix" values="0 0 0 0 0 0 0 0 0 0 0 0 0 0 0 0 0 0 0.25 0"/>
<feBlend mode="normal" in2="BackgroundImageFix" result="effect1_dropShadow_20_2"/>
<feBlend mode="normal" in="SourceGraphic" in2="effect1_dropShadow_20_2" result="shape"/>
</filter>
<linearGradient id="paint0_linear_20_2" x1="59.3965" y1="-29.0526" x2="92.5115" y2="228.882" gradientUnits="userSpaceOnUse">
<stop stop-color="#E42C66"/>
<stop offset="1" stop-color="#F55B46"/>
</linearGradient>
<clipPath id="clip0_20_2">
<rect width="40" height="43" fill="white" transform="translate(262 23)"/>
</clipPath>
</defs>
</svg>
